{"title":"Beyond 2011 DVDrip English Klam","uid":7139140,"size":1144866215,"categoryP":"video","categoryS":"movies","magnet":"?xt=urn:btih:82b21971fafc06d82800bc3e66b11dd72d3ff6bb&amp;dn=Beyond+2011+DVDrip+English+Klam&amp;tr=udp%3A%2F%2Ftracker.openbittorrent.com%3A80&amp;tr=udp%3A%2F%2Fopen.demonii.com%3A1337&amp;tr=udp%3A%2F%2Ftracker.coppersurfer.tk%3A6969&amp;tr=udp%3A%2F%2Fexodus.desync.com%3A6969","seeders":0,"leechers":0,"uploader":"Klambake","files":-1,"time":1332943953,"description":"With: Jon Voight, Teri Polo and Dermot Mulroney\n\nJohn Koski is een rechercheur die onderzoek doet naar de ontvoering van het nichtje van de politiecommissaris. Hij wordt hierin bijgestaan door Farley, een beroemde helderziende die beweert het meisje gezien te hebben in visioenen. Naarmate het onderzoek vordert, komen er steeds vreemdere dingen aan het licht. Koski trekt zijn eigen geestelijke gezondheid in twijfel en ontdekt een duister geheim over zichzelf...\n\nA detective teams with a tabloid psychic to track down a missing child. \n\n------------------------ Dutch Friends ------------------------\n---------------------------------------------------------------\n- Bezoek ook eens mijn vrienden op: &lt;a href=&quot; http://www.Film-Test.nl&quot; rel=&quot;nofollow&quot; target=&quot;_NEW&quot;&gt; http://www.Film-Test.nl&lt;/a&gt; --\n----- voor mijn Nederlandse Sync. ondertitels ---- en meer ----\n------- http://www.Film-Test.nl ---- voor Films en meer -------\n---------------------------------------------------------------\n\nGeneral:\n\nComplete name                    : BeyondBeyond.avi\nFormat                           : AVI\nFormat/Info                      : Audio Video Interleave\nFile size                        : 1.07 GiB\nDuration                         : 1h 26mn\nOverall bit rate                 : 1 767 Kbps\n\nVideo:\n\nFormat                           : MPEG-4 Visual\nFormat profile                   : Simple@L3\nFormat settings, BVOP            : No\nFormat settings, QPel            : No\nFormat settings, GMC             : No warppoints\nFormat settings, Matrix          : Default (H.263)\nCodec ID                         : XVID\nCodec ID/Hint                    : XviD\nDuration                         : 1h 26mn\nBit rate                         : 1 372 Kbps\nWidth                            : 720 pixels\nHeight                           : 304 pixels\nDisplay aspect ratio             : 2.35:1\nFrame rate                       : 25.000 fps\nColor space                      : YUV\nChroma subsampling               : 4:2:0\nBit depth                        : 8 bits\nScan type                        : Progressive\nBits/(Pixel*Frame)               : 0.251\nStream size                      : 848 MiB (78%)\nWriting library                  : XviD 1.1.2 (UTC 2006-11-01)\n\nAudio:\n\nFormat                           : AC-3\nFormat/Info                      : Audio Coding 3\nMode extension                   : CM (complete main)\nCodec ID                         : 2000\nDuration                         : 1h 26mn\nBit rate mode                    : Constant\nBit rate                         : 384 Kbps\nChannel(s)                       : 6 channels\nChannel positions                : Front: L C R, Side: L R, LFE\nSampling rate                    : 48.0 KHz\nBit depth                        : 16 bits\nStream size                      : 237 MiB (22%)\nAlignment                        : Aligned on interleaves\nInterleave, duration             : 32 ms (0.80 video frame)\n","torrent":{"xt":"urn:btih:82b21971fafc06d82800bc3e66b11dd72d3ff6bb","amp;dn":"Beyond+2011+DVDrip+English+Klam","amp;tr":["udp%3A%2F%2Ftracker.openbittorrent.com%3A80","udp%3A%2F%2Fopen.demonii.com%3A1337","udp%3A%2F%2Ftracker.coppersurfer.tk%3A6969","udp%3A%2F%2Fexodus.desync.com%3A6969"],"infoHash":"82b21971fafc06d82800bc3e66b11dd72d3ff6bb","infoHashBuffer":{"type":"Buffer","data":[130,178,25,113,250,252,6,216,40,0,188,62,102,177,29,215,45,63,246,187]},"announce":[],"urlList":[]}}